<svg width="21" height="14" viewBox="0 0 21 14" fill="none" xmlns="http://www.w3.org/2000/svg">
<path d="M-1.77452e-05 13.248C-1.77358e-05 13.032 0.119983 12.744 0.359983 12.384L8.17198 1.044C8.43598 0.683999 8.68798 0.419999 8.92798 0.251999C9.16798 0.0839995 9.45598 -4.6946e-07 9.79198 -4.54773e-07L10.404 -4.28022e-07C10.74 -4.13335e-07 11.028 0.0719995 11.268 0.216C11.508 0.384 11.772 0.66 12.06 1.044L19.836 12.384C20.076 12.744 20.196 13.032 20.196 13.248C20.196 13.464 20.124 13.632 19.98 13.752C19.86 13.896 19.692 13.968 19.476 13.968L17.892 13.968C17.628 13.968 17.412 13.896 17.244 13.752C17.076 13.632 16.896 13.428 16.704 13.14L10.116 3.492L3.52798 13.14C3.31198 13.452 3.11998 13.668 2.95198 13.788C2.78398 13.908 2.56798 13.968 2.30398 13.968L0.719983 13.968C0.503983 13.968 0.323982 13.896 0.179983 13.752C0.0599825 13.632 -1.77547e-05 13.464 -1.77452e-05 13.248Z" fill="white"/>
</svg>
