<svg width="24" height="24" viewBox="0 0 24 24" fill="none" xmlns="http://www.w3.org/2000/svg">
<path fill-rule="evenodd" clip-rule="evenodd" d="M13.0459 0.719238C12.8686 0.28418 12.4455 0 11.9758 0C11.5061 0 11.0832 0.28418 10.9058 0.719238L8.12035 7.55078L1.05029 8.19678C0.596184 8.23828 0.208977 8.54346 0.0617601 8.9751C-0.0852126 9.40674 0.0351488 9.88428 0.369377 10.1948L5.70092 15.1436L4.07836 22.5488C3.979 23.0029 4.16113 23.4722 4.54076 23.7402C4.9204 24.0083 5.42358 24.0229 5.81811 23.7773L11.9758 19.9429L18.1338 23.7773C18.5281 24.0229 19.0315 24.0083 19.4111 23.7402C19.7905 23.4722 19.9726 23.0029 19.8733 22.5488L18.251 15.1436L23.5823 10.1948C23.9165 9.88428 24.0371 9.40674 23.8899 8.9751C23.7427 8.54346 23.3555 8.23828 22.9014 8.19678L15.8313 7.55078L13.0459 0.719238Z" fill="black"/>
</svg>
