<svg width="26" height="26" viewBox="0 0 26 26" fill="none" xmlns="http://www.w3.org/2000/svg">
<path fill-rule="evenodd" clip-rule="evenodd" d="M12.9759 1C13.4456 1 13.8686 1.28432 14.0459 1.71927L16.8313 8.55063L23.9014 9.19698C24.3555 9.2385 24.7428 9.54324 24.8899 9.9749C25.0371 10.4066 24.9166 10.8844 24.5823 11.1947L19.2509 16.1438L20.8733 23.5489C20.9727 24.0028 20.7906 24.4721 20.411 24.7402C20.0314 25.0082 19.5282 25.0228 19.1337 24.7771L12.9759 20.943L6.81803 24.7771C6.42356 25.0228 5.92034 25.0082 5.54074 24.7402C5.16114 24.4721 4.97901 24.0028 5.07846 23.5489L6.70081 16.1438L1.36943 11.1947C1.03519 10.8844 0.914698 10.4066 1.06184 9.9749C1.20899 9.54324 1.59625 9.2385 2.0504 9.19698L9.12043 8.55063L11.9058 1.71927C12.0832 1.28432 12.5062 1 12.9759 1ZM12.9759 5.21618L10.9953 10.0737C10.8323 10.4734 10.4602 10.7489 10.0304 10.7882L4.83978 11.2627L8.75708 14.8992C9.05695 15.1775 9.18726 15.5937 9.0997 15.9934L7.92242 21.367L12.3651 18.6008C12.739 18.3679 13.2128 18.3679 13.5867 18.6008L18.0293 21.367L16.8521 15.9934C16.7645 15.5937 16.8948 15.1775 17.1947 14.8992L21.112 11.2627L15.9213 10.7882C15.4915 10.7489 15.1194 10.4734 14.9565 10.0737L12.9759 5.21618Z" fill="black" stroke="black" stroke-linejoin="round"/>
</svg>
