<svg width="26" height="24" viewBox="0 0 26 24" fill="none" xmlns="http://www.w3.org/2000/svg">
<path d="M24.0793 0H4.40185C3.62344 0 3.00586 0.617389 3.00586 1.39599V5.9866C3.00586 6.76501 3.62325 7.38259 4.40185 7.38259C5.18026 7.38259 5.79785 6.76521 5.79785 5.9866V2.81898H22.6834V21.181H5.79785V18.0134C5.79785 17.235 5.18046 16.6174 4.40185 16.6174C3.62344 16.6174 3.00586 17.2348 3.00586 18.0134V22.604C3.00586 23.3824 3.62325 24 4.40185 24H24.0793C24.8577 24 25.4753 23.3826 25.4753 22.604V1.42322C25.4753 0.617437 24.8579 4.79113e-05 24.0793 4.79113e-05V0Z" fill="white"/>
<path d="M12.0266 16.0263C11.7581 16.2948 11.624 16.6706 11.624 17.0195C11.624 17.3685 11.7583 17.7444 12.0266 18.0127C12.5635 18.5496 13.4761 18.5496 14.0132 18.0127L19.0869 12.939C19.6238 12.4021 19.6238 11.4895 19.0869 10.9524L14.0132 5.79815C13.4763 5.26129 12.5637 5.26129 12.0266 5.79815C11.4898 6.335 11.4898 7.24769 12.0266 7.78473L14.6843 10.496H1.39599C0.617581 10.496 0 11.1134 0 11.892C0 12.6704 0.61739 13.288 1.39599 13.288H14.7649L12.0266 16.0263Z" fill="white"/>
</svg>
