<svg width="22" height="22" viewBox="0 0 22 22" fill="none" xmlns="http://www.w3.org/2000/svg">
<path d="M16.3181 15.7808L16.9848 15.0355L16.7001 14.7808H16.3181V15.7808ZM20.1956 19.25L19.5289 19.9953L21.1956 21.4865V19.25H20.1956ZM20.1956 13.774H21.1956V12.4584L19.928 12.8105L20.1956 13.774ZM20.1955 13.7741H19.1955V15.0897L20.4632 14.7376L20.1955 13.7741ZM2.83398 4.75C2.83398 4.19772 3.2817 3.75 3.83398 3.75V1.75C2.17713 1.75 0.833984 3.09315 0.833984 4.75H2.83398ZM2.83398 13.7808V4.75H0.833984V13.7808H2.83398ZM3.83399 14.7808C3.2817 14.7808 2.83398 14.333 2.83398 13.7808H0.833984C0.833984 15.4376 2.17713 16.7808 3.83399 16.7808V14.7808ZM16.3181 14.7808H3.83399V16.7808H16.3181V14.7808ZM20.8624 18.5048L16.9848 15.0355L15.6513 16.526L19.5289 19.9953L20.8624 18.5048ZM19.1956 13.774V19.25H21.1956V13.774H19.1956ZM20.4632 14.7376L20.4633 14.7375L19.928 12.8105L19.9279 12.8106L20.4632 14.7376ZM19.1955 4.75V13.7741H21.1955V4.75H19.1955ZM18.1955 3.75C18.7478 3.75 19.1955 4.19772 19.1955 4.75H21.1955C21.1955 3.09314 19.8524 1.75 18.1955 1.75V3.75ZM3.83398 3.75H18.1955V1.75H3.83398V3.75Z" fill="white"/>
</svg>
