<svg width="29" height="29" viewBox="0 0 29 29" fill="none" xmlns="http://www.w3.org/2000/svg">
<path fill-rule="evenodd" clip-rule="evenodd" d="M21.4658 0L28.094 6.62822L13.4032 21.3191C12.2405 22.4817 10.7607 23.2755 9.14902 23.6011L3.3145 24.7795L4.49298 18.945C4.81852 17.3333 5.61231 15.8535 6.77496 14.6909L21.4658 0ZM21.4658 5.04547L21.3151 5.19616L22.8979 6.77891L23.0486 6.62822L21.4658 5.04547ZM20.7976 8.77806L19.2148 7.19531L9.2977 17.2136C8.63146 17.8798 8.17659 18.7278 7.99004 19.6514L7.87548 20.2186L8.44267 20.104C9.36622 19.9175 10.2142 19.4626 10.8804 18.7963L20.7976 8.77806Z" fill="black"/>
<rect x="21.0186" y="3.27393" width="5.63319" height="1.49504" transform="rotate(45 21.0186 3.27393)" fill="black"/>
</svg>
