<svg width="24" height="24" viewBox="0 0 24 24" fill="none" xmlns="http://www.w3.org/2000/svg">
<path fill-rule="evenodd" clip-rule="evenodd" d="M12 0C12.4707 0 12.8945 0.284895 13.0722 0.720719L15.8632 7.56584L22.9475 8.21349C23.4026 8.25509 23.7906 8.56045 23.938 8.99298C24.0855 9.42551 23.9647 9.9043 23.6298 10.2152L18.2877 15.1743L19.9133 22.5943C20.013 23.0491 19.8305 23.5194 19.4501 23.788C19.0697 24.0566 18.5655 24.0711 18.1702 23.825L12 19.9831L5.82975 23.825C5.43449 24.0711 4.93025 24.0566 4.54989 23.788C4.16952 23.5194 3.98703 23.0491 4.08667 22.5943L5.71229 15.1743L0.370171 10.2152C0.0352618 9.9043 -0.0854737 9.42551 0.0619677 8.99298C0.209409 8.56045 0.597447 8.25509 1.05252 8.21349L8.13679 7.56584L10.9278 0.720719C11.1055 0.284895 11.5293 0 12 0ZM12 4.22467L10.0154 9.09202C9.85212 9.49247 9.47929 9.76856 9.04862 9.80793L3.84752 10.2834L7.77271 13.9272C8.07318 14.2061 8.20375 14.6231 8.11601 15.0236L6.93637 20.408L11.388 17.6362C11.7626 17.4029 12.2374 17.4029 12.612 17.6362L17.0636 20.408L15.884 15.0236C15.7963 14.6231 15.9268 14.2061 16.2273 13.9272L20.1525 10.2834L14.9514 9.80793C14.5207 9.76856 14.1479 9.49247 13.9846 9.09202L12 4.22467Z" fill="white"/>
</svg>
