<svg width="34" height="21" viewBox="0 0 34 21" fill="none" xmlns="http://www.w3.org/2000/svg">
<path fill-rule="evenodd" clip-rule="evenodd" d="M33.2198 1.42198C33.4562 0.602304 33.2198 0 32.095 0H28.3753C27.4296 0 26.9936 0.520302 26.7571 1.09404C26.7571 1.09404 24.8655 5.8891 22.1859 9.0038C21.319 9.90541 20.9249 10.1923 20.452 10.1923C20.2156 10.1923 19.8733 9.90541 19.8733 9.0858V1.42199C19.8733 0.43837 19.5988 0 18.8106 0H12.9655C12.3745 0 12.019 0.456518 12.019 0.889176C12.019 1.82162 13.3588 2.03665 13.4969 4.65962V10.3563C13.4969 11.6053 13.28 11.8317 12.8071 11.8317C11.5462 11.8317 8.47885 7.01523 6.65965 1.50392C6.30313 0.432711 5.94555 0 4.99492 0H1.27531C0.21256 0 0 0.520302 0 1.09404C0 2.11866 1.26103 7.20059 5.87157 13.9218C8.94524 18.5119 13.2758 21 17.2165 21C19.5809 21 19.8734 20.4474 19.8734 19.4955V16.0263C19.8734 14.9211 20.0974 14.7005 20.8461 14.7005C21.3978 14.7005 22.3435 14.9873 24.5503 17.2004C27.0723 19.8233 27.4881 21 28.9067 21H32.6263C33.6891 21 34.2205 20.4474 33.9139 19.3568C33.5785 18.2698 32.3743 16.6928 30.7766 14.8234C29.9096 13.7579 28.6092 12.6104 28.2151 12.0365C27.6634 11.2989 27.8211 10.971 28.2151 10.3153C28.2151 10.3153 32.7469 3.67601 33.2198 1.42198V1.42198Z" fill="white"/>
</svg>
