<svg width="20" height="24" viewBox="0 0 20 24" fill="none" xmlns="http://www.w3.org/2000/svg">
<path d="M16.3423 0.415982C14.2384 0.415982 12.8683 0.0246789 10.691 0.0246789C3.62072 0.0246789 0.34246 4.03688 0.34246 8.12247C0.34246 10.52 1.4923 11.3273 3.71862 11.3273C3.57186 10.9848 3.27835 10.5933 3.27835 8.88083C3.27835 4.11023 5.08877 2.71574 7.38831 2.61788C7.38831 2.61788 5.50449 21.1865 0 23.4128V24H3.9388L7.41278 23.9998L9.93263 12.0122H14.5564L15.584 9.00307H10.5687L11.7919 3.22942C13.1865 3.52294 14.5319 3.79206 15.7064 3.79206C17.1497 3.79206 18.4953 3.35178 19.2293 0C18.3486 0.318092 17.3943 0.415877 16.3424 0.415877L16.3423 0.415982Z" fill="white"/>
</svg>
