<svg width="44" height="43" viewBox="0 0 44 43" fill="none" xmlns="http://www.w3.org/2000/svg">
<path fill-rule="evenodd" clip-rule="evenodd" d="M22.1405 42.7605C33.9485 42.7605 43.5207 33.1882 43.5207 21.3802C43.5207 9.57226 33.9485 0 22.1405 0C10.3325 0 0.760254 9.57226 0.760254 21.3802C0.760254 33.1882 10.3325 42.7605 22.1405 42.7605ZM22.4096 24.0433V19.4774L22.4116 19.4764L35.2405 19.4818C35.3578 20.1476 35.4531 20.8129 35.4531 21.6865C35.4531 29.2898 30.2488 34.6926 22.4116 34.6926C14.9037 34.6926 8.82861 28.7386 8.82861 21.3803C8.82861 14.0221 14.9037 8.06812 22.4116 8.06812C26.0772 8.06812 29.1439 9.37949 31.5101 11.5522L27.8224 15.0313C26.8137 14.0811 25.0465 12.978 22.4096 12.978C17.7728 12.978 13.9898 16.7422 13.9898 21.3808C13.9898 26.02 17.7728 29.7841 22.4096 29.7841C27.7833 29.7841 29.8001 26.0033 30.1129 24.0433H22.4096Z" fill="#141515"/>
</svg>
