<svg width="452" height="452" viewBox="0 0 452 452" fill="none" xmlns="http://www.w3.org/2000/svg">
<path fill-rule="evenodd" clip-rule="evenodd" d="M225.677 327.451C302.063 327.451 363.985 265.213 363.985 188.439C363.985 111.665 302.063 49.4266 225.677 49.4266C149.292 49.4266 87.3695 111.665 87.3695 188.439C87.3695 265.213 149.292 327.451 225.677 327.451ZM225.677 376.878C329.222 376.878 413.161 292.511 413.161 188.439C413.161 84.367 329.222 0 225.677 0C122.133 0 38.1934 84.367 38.1934 188.439C38.1934 292.511 122.133 376.878 225.677 376.878Z" fill="#D2FB51"/>
<path fill-rule="evenodd" clip-rule="evenodd" d="M0 306.852H53.6056V407.339L398.393 407.339V306.852H451.999V452L0 452V306.852Z" fill="#D2FB51"/>
</svg>
