<svg width="24" height="24" viewBox="0 0 24 24" fill="none" xmlns="http://www.w3.org/2000/svg">
<path fill-rule="evenodd" clip-rule="evenodd" d="M4.97571 0H19.0243C21.7559 0 24 2.24396 24 4.97571V19.0243C24 21.7559 21.756 24 19.0243 24H4.97571C2.24409 24 0 21.756 0 19.0243V4.97571C0 2.24409 2.24396 0 4.97571 0ZM4.48774 2.2439C6.34149 2.2439 6.34149 5.07316 4.48774 5.07316C2.634 5.07316 2.634 2.2439 4.48774 2.2439ZM12.0002 4.87812C15.9027 4.87812 19.1222 8.09759 19.1222 12.0001C19.1222 15.9026 15.9027 19.1221 12.0002 19.1221C8.09764 19.1221 4.87817 15.9026 4.87817 12.0001C4.87817 8.09759 8.09764 4.87812 12.0002 4.87812Z" fill="white"/>
<rect x="11.9492" y="7" width="7" height="7" transform="rotate(45 11.9492 7)" fill="white"/>
</svg>
