<svg width="34" height="34" viewBox="0 0 34 34" fill="none" xmlns="http://www.w3.org/2000/svg">
<path fill-rule="evenodd" clip-rule="evenodd" d="M16.9248 22.704C22.1875 22.704 26.4538 18.3887 26.4538 13.0655C26.4538 7.74231 22.1875 3.42702 16.9248 3.42702C11.6621 3.42702 7.39589 7.74231 7.39589 13.0655C7.39589 18.3887 11.6621 22.704 16.9248 22.704ZM16.9248 26.131C24.0587 26.131 29.8419 20.2814 29.8419 13.0655C29.8419 5.84962 24.0587 0 16.9248 0C9.79096 0 4.00781 5.84962 4.00781 13.0655C4.00781 20.2814 9.79096 26.131 16.9248 26.131Z" fill="white"/>
<path fill-rule="evenodd" clip-rule="evenodd" d="M0 23.082H4.01467V30.6408L29.8367 30.6408V23.082H33.8514V34.0003L0 34.0003V23.082Z" fill="white"/>
</svg>
