<svg width="50" height="50" viewBox="0 0 50 50" fill="none" xmlns="http://www.w3.org/2000/svg">
<path fill-rule="evenodd" clip-rule="evenodd" d="M24.965 36.2226C33.4147 36.2226 40.2646 29.3378 40.2646 20.8451C40.2646 12.3523 33.4147 5.46756 24.965 5.46756C16.5153 5.46756 9.66544 12.3523 9.66544 20.8451C9.66544 29.3378 16.5153 36.2226 24.965 36.2226ZM24.965 41.6901C36.4191 41.6901 45.7045 32.3575 45.7045 20.8451C45.7045 9.33265 36.4191 0 24.965 0C13.5109 0 4.22559 9.33265 4.22559 20.8451C4.22559 32.3575 13.5109 41.6901 24.965 41.6901Z" fill="#D2FB51"/>
<path fill-rule="evenodd" clip-rule="evenodd" d="M0 33.9436H5.92984V45.0595L44.0702 45.0595V33.9436H50V49.9999L0 49.9999V33.9436Z" fill="#D2FB51"/>
</svg>
