<svg width="24" height="24" viewBox="0 0 24 24" fill="none" xmlns="http://www.w3.org/2000/svg">
<path fill-rule="evenodd" clip-rule="evenodd" d="M11.9842 17.3868C16.0401 17.3868 19.328 14.0822 19.328 10.0056C19.328 5.92911 16.0401 2.62443 11.9842 2.62443C7.92836 2.62443 4.64043 5.92911 4.64043 10.0056C4.64043 14.0822 7.92836 17.3868 11.9842 17.3868ZM11.9842 20.0113C17.4822 20.0113 21.9392 15.5316 21.9392 10.0056C21.9392 4.47967 17.4822 0 11.9842 0C6.48627 0 2.0293 4.47967 2.0293 10.0056C2.0293 15.5316 6.48627 20.0113 11.9842 20.0113Z" fill="white"/>
<path fill-rule="evenodd" clip-rule="evenodd" d="M0 16.293H2.84632V21.6286L21.1537 21.6286V16.293H24V24L0 24V16.293Z" fill="white"/>
</svg>
