<svg width="390" height="261" viewBox="0 0 390 261" fill="none" xmlns="http://www.w3.org/2000/svg">
<path fill-rule="evenodd" clip-rule="evenodd" d="M65.1237 130.994C101.091 130.994 130.247 101.67 130.247 65.4969C130.247 29.324 101.091 0 65.1237 0C29.1569 0 0 29.324 0 65.4969C0 101.67 29.1569 130.994 65.1237 130.994Z" fill="white"/>
<path fill-rule="evenodd" clip-rule="evenodd" d="M65.1237 260.121C101.091 260.121 130.247 230.797 130.247 194.624C130.247 158.451 101.091 129.127 65.1237 129.127C29.1569 129.127 0 158.451 0 194.624C0 230.797 29.1569 260.121 65.1237 260.121Z" fill="white"/>
<path fill-rule="evenodd" clip-rule="evenodd" d="M193.882 130.994C229.848 130.994 259.005 101.67 259.005 65.4969C259.005 29.324 229.848 0 193.882 0C157.915 0 128.758 29.324 128.758 65.4969C128.758 101.67 157.915 130.994 193.882 130.994Z" fill="white"/>
<path fill-rule="evenodd" clip-rule="evenodd" d="M193.882 260.121C229.848 260.121 259.005 230.797 259.005 194.624C259.005 158.451 229.848 129.127 193.882 129.127C157.915 129.127 128.758 158.451 128.758 194.624C128.758 230.797 157.915 260.121 193.882 260.121Z" fill="white"/>
<path fill-rule="evenodd" clip-rule="evenodd" d="M324.878 130.994C360.844 130.994 390.001 101.67 390.001 65.4969C390.001 29.324 360.844 0 324.878 0C288.911 0 259.754 29.324 259.754 65.4969C259.754 101.67 288.911 130.994 324.878 130.994Z" fill="white"/>
<path fill-rule="evenodd" clip-rule="evenodd" d="M324.878 260.121C360.844 260.121 390.001 230.797 390.001 194.624C390.001 158.451 360.844 129.127 324.878 129.127C288.911 129.127 259.754 158.451 259.754 194.624C259.754 230.797 288.911 260.121 324.878 260.121Z" fill="white"/>
<rect x="65.582" y="66.4081" width="259.019" height="129.234" fill="white"/>
</svg>
