<svg width="1440" height="321" viewBox="0 0 1440 321" fill="none" xmlns="http://www.w3.org/2000/svg">
<path fill-rule="evenodd" clip-rule="evenodd" d="M80.3286 320.854C120.546 320.854 153.861 291.129 159.738 252.332C165.614 291.129 198.929 320.854 239.146 320.854C283.128 320.854 318.855 285.304 319.467 241.216H320.407C321.02 285.304 356.746 320.854 400.728 320.854C441.502 320.854 475.181 290.302 480.365 250.718C485.55 290.302 519.228 320.854 560.001 320.854C601.897 320.854 636.302 288.597 640.001 247.43C643.701 288.597 678.105 320.854 720 320.854C760.218 320.854 793.533 291.129 799.41 252.332C805.286 291.129 838.601 320.854 878.818 320.854C922.8 320.854 958.527 285.304 959.139 241.216H960.079C960.691 285.304 996.418 320.854 1040.4 320.854C1081.17 320.854 1114.85 290.302 1120.04 250.718C1125.22 290.302 1158.9 320.854 1199.67 320.854C1241.57 320.854 1275.97 288.599 1279.67 247.433C1283.37 288.599 1317.78 320.854 1359.67 320.854C1404.04 320.854 1440 284.684 1440 240.064C1440 200.104 1411.15 166.921 1373.26 160.427C1411.15 153.933 1440 120.75 1440 80.7891C1440 36.1709 1404.04 0 1359.67 0C1317.78 0 1283.37 32.2559 1279.67 73.4209C1275.97 32.2559 1241.57 0 1199.67 0C1158.9 0 1125.22 30.5537 1120.04 70.1367C1114.85 30.5537 1081.17 0 1040.4 0C996.297 0 960.496 35.7451 960.075 80H959.143C958.722 35.7451 922.921 0 878.818 0C838.601 0 805.286 29.7246 799.41 68.5215C793.533 29.7246 760.218 0 720 0C678.105 0 643.701 32.2578 640.001 73.4238C636.302 32.2578 601.897 0 560.001 0C519.228 0 485.55 30.5537 480.365 70.1367C475.181 30.5537 441.502 0 400.728 0C356.364 0 320.399 36.1709 320.399 80.7891V81.0176L320.402 81.4854L320.407 81.9395H319.467C319.473 81.5566 319.475 81.1729 319.475 80.7891C319.475 36.1709 283.511 0 239.146 0C198.929 0 165.614 29.7246 159.738 68.5215C153.861 29.7246 120.546 0 80.3286 0C35.9644 0 0 36.1709 0 80.7891C0 120.75 28.8467 153.933 66.7388 160.427C28.8467 166.921 0 200.104 0 240.064C0 284.684 35.9644 320.854 80.3286 320.854ZM1345 160.62C1345.36 160.554 1345.72 160.488 1346.08 160.427C1345.72 160.365 1345.36 160.3 1345 160.233V160.62Z" fill="white"/>
</svg>
