<svg width="25" height="23" viewBox="0 0 25 23" fill="none" xmlns="http://www.w3.org/2000/svg">
<path d="M21.6669 5.08789L5 12L22 18" stroke="black" stroke-width="3"/>
<path fill-rule="evenodd" clip-rule="evenodd" d="M20 10C22.7614 10 25 7.76142 25 5C25 2.23858 22.7614 0 20 0C17.2386 0 15 2.23858 15 5C15 7.76142 17.2386 10 20 10Z" fill="black"/>
<path fill-rule="evenodd" clip-rule="evenodd" d="M5 17C7.76142 17 10 14.7614 10 12C10 9.23858 7.76142 7 5 7C2.23858 7 0 9.23858 0 12C0 14.7614 2.23858 17 5 17Z" fill="black"/>
<path fill-rule="evenodd" clip-rule="evenodd" d="M20 23C22.7614 23 25 20.7614 25 18C25 15.2386 22.7614 13 20 13C17.2386 13 15 15.2386 15 18C15 20.7614 17.2386 23 20 23Z" fill="black"/>
</svg>
