<svg width="9" height="9" viewBox="0 0 9 9" fill="none" xmlns="http://www.w3.org/2000/svg">
<path fill-rule="evenodd" clip-rule="evenodd" d="M0.000290914 8.51722C9.69712e-05 8.52354 0 8.52983 0 8.53608C0 8.65979 0.0266901 8.76804 0.0800711 8.86083C0.144128 8.95361 0.224199 9 0.320284 9H0.5H1.02491H7.95907L8 9C8.00033 9 8.00066 9 8.00099 9H8.6637C8.77046 9 8.85053 8.95361 8.90391 8.86083C8.96797 8.76804 9 8.65979 9 8.53608C9 8.4433 8.97865 8.34278 8.93594 8.23454C8.89324 8.14175 8.85587 8.0567 8.82384 7.97938L5.36477 0.67268C5.24733 0.440722 5.13523 0.270618 5.02847 0.162371C4.92171 0.0541235 4.79359 0 4.64413 0H4.35587C4.20641 0 4.07295 0.0541235 3.95552 0.162371C3.84875 0.270618 3.74199 0.440721 3.63523 0.67268L0.160143 7.97938C0.13879 8.0567 0.106761 8.14175 0.064056 8.23454C0.0332328 8.31267 0.0135338 8.38677 0.0049583 8.45684C0.00169712 8.47219 0 8.48662 0 8.5C0 8.50576 9.7491e-05 8.5115 0.000290914 8.51722ZM2.02502 7.5L6.97498 7.5L4.5 2.25L2.02502 7.5Z" fill="#D2FB51"/>
</svg>
