<svg width="44" height="43" viewBox="0 0 44 43" fill="none" xmlns="http://www.w3.org/2000/svg">
<path fill-rule="evenodd" clip-rule="evenodd" d="M43.521 21.4999C43.521 33.374 33.8951 43 22.0209 43C10.1468 43 0.520996 33.374 0.520996 21.4999C0.520996 9.62585 10.1468 0 22.0209 0C33.8951 0 43.521 9.62585 43.521 21.4999ZM31.5374 14.8407C32.352 14.7167 33.148 14.4922 33.9074 14.1722C33.9158 14.1648 33.9234 14.158 33.9305 14.1516C34.0053 14.0844 34.013 14.0775 34.1018 14.2329C34.1045 14.3686 34.0617 14.5012 33.9803 14.6097C33.4514 15.347 32.8166 16.0023 32.0964 16.5543C32.0729 16.5749 32.0444 16.5955 32.0147 16.6169C31.9217 16.6842 31.817 16.7597 31.817 16.8704C31.9148 18.7942 31.6277 20.7183 30.9723 22.5297C30.317 24.3413 29.3067 26.0038 28.0006 27.4198C26.1884 29.1154 23.9626 30.3054 21.546 30.8705C19.1294 31.4358 16.6067 31.3565 14.2305 30.6405C13.3072 30.3814 12.4147 30.0228 11.5687 29.571C11.2893 29.4252 11.0097 29.255 10.7302 29.0849C10.6694 29.0241 10.6087 28.939 10.6694 28.939H10.9975C12.3436 29.0562 13.6991 28.8821 14.9718 28.4285C15.948 28.1908 16.8499 27.7147 17.597 27.043C17.4147 26.9701 17.2446 26.9701 17.0744 26.9701C16.2117 26.8077 15.4054 26.4263 14.7328 25.8622C14.0601 25.2981 13.544 24.5706 13.2338 23.7493C13.1853 23.5913 13.2338 23.5913 13.3675 23.5913C13.9745 23.6695 14.5901 23.6489 15.1906 23.5306C14.9772 23.4898 14.7692 23.4246 14.5708 23.3361C13.7578 23.0072 13.0468 22.4682 12.5108 21.7741C11.9747 21.08 11.6329 20.2559 11.5202 19.3861C11.5085 19.204 11.5085 19.0214 11.5202 18.8392C11.5323 18.742 11.593 18.669 11.7024 18.742C12.2855 19.0386 12.9218 19.2162 13.5741 19.2646C13.3648 19.103 13.166 18.9285 12.9786 18.742C12.2276 17.9982 11.7395 17.0299 11.5881 15.9838C11.4368 14.9377 11.6305 13.8708 12.14 12.9447C12.2373 12.8109 12.298 12.8109 12.4074 12.9447C14.9128 15.7087 18.3569 17.4417 22.0696 17.8062C22.1668 17.8305 22.1668 17.8062 22.1668 17.6968C22.0333 17.0309 22.0333 16.3451 22.1668 15.6793C22.3371 14.9783 22.6656 14.3255 23.127 13.7711C23.5577 13.2247 24.1006 12.7771 24.7191 12.4585C25.3352 12.1408 26.009 11.9506 26.7001 11.8994C27.4138 11.8525 28.1287 11.9689 28.7906 12.2397C29.2853 12.4414 29.7448 12.7203 30.1519 13.0662C30.2419 13.1422 30.3233 13.2278 30.3949 13.3214C30.4245 13.3385 30.4581 13.3475 30.4922 13.3475C30.5263 13.3475 30.5598 13.3385 30.5894 13.3214C31.57 13.0834 32.5172 12.724 33.4091 12.2519C33.427 12.2399 33.4482 12.2334 33.4699 12.2334C33.4915 12.2334 33.5126 12.2399 33.5306 12.2519V12.3734C33.3643 12.8964 33.1004 13.383 32.7528 13.8076C32.6959 13.8645 32.6275 13.9384 32.5513 14.0207C32.2533 14.3428 31.8375 14.7923 31.5374 14.8407Z" fill="#141515"/>
</svg>
