<svg width="28" height="23" viewBox="0 0 28 23" fill="none" xmlns="http://www.w3.org/2000/svg">
<path fill-rule="evenodd" clip-rule="evenodd" d="M27.9286 2.72452C26.8994 3.18494 25.7953 3.49752 24.637 3.63691C25.8203 2.91882 26.7286 1.77833 27.1536 0.422406C26.0453 1.08981 24.8203 1.57135 23.5162 1.83324C22.4704 0.705418 20.9829 0 19.3329 0C16.1705 0 13.6039 2.60202 13.6039 5.80808C13.6039 6.26428 13.6539 6.70781 13.7539 7.13021C8.99148 6.88944 4.77073 4.57466 1.94579 1.06024C1.45414 1.91772 1.17081 2.9146 1.17081 3.97906C1.17081 5.99394 2.18329 7.77227 3.72075 8.81139C2.78327 8.78182 1.89996 8.51993 1.12498 8.08485C1.12498 8.11019 1.12498 8.13131 1.12498 8.15666C1.12498 10.9699 3.09993 13.3185 5.72071 13.8507C5.24156 13.9816 4.73323 14.0534 4.21241 14.0534C3.84158 14.0534 3.48326 14.0154 3.13327 13.9478C3.86242 16.2542 5.97904 17.9354 8.48315 17.9818C6.52069 19.5405 4.05408 20.4698 1.36664 20.4698C0.904147 20.4698 0.44999 20.4402 0 20.3895C2.53328 22.0369 5.54572 23 8.78315 23C19.3204 23 25.0828 14.1506 25.0828 6.47548C25.0828 6.22204 25.0786 5.97282 25.0661 5.7236C26.1869 4.90413 27.1578 3.88191 27.9244 2.71607L27.9286 2.72452Z" fill="white"/>
</svg>
