<svg width="21" height="24" viewBox="0 0 21 24" fill="none" xmlns="http://www.w3.org/2000/svg">
<mask id="path-1-inside-1_226_1750" fill="white">
<path d="M2.52148 3.41064H18.3165V20.5134C18.3165 22.1702 16.9733 23.5134 15.3165 23.5134H5.52148C3.86463 23.5134 2.52148 22.1702 2.52148 20.5134V3.41064Z"/>
</mask>
<path d="M2.52148 3.41064V-0.589355H-1.47852V3.41064H2.52148ZM18.3165 3.41064H22.3165V-0.589355H18.3165V3.41064ZM2.52148 7.41064H18.3165V-0.589355H2.52148V7.41064ZM14.3165 3.41064V20.5134H22.3165V3.41064H14.3165ZM15.3165 19.5134H5.52148V27.5134H15.3165V19.5134ZM6.52148 20.5134V3.41064H-1.47852V20.5134H6.52148ZM5.52148 19.5134C6.07377 19.5134 6.52148 19.9611 6.52148 20.5134H-1.47852C-1.47852 24.3794 1.65549 27.5134 5.52148 27.5134V19.5134ZM14.3165 20.5134C14.3165 19.9611 14.7642 19.5134 15.3165 19.5134V27.5134C19.1825 27.5134 22.3165 24.3794 22.3165 20.5134H14.3165Z" fill="black" mask="url(#path-1-inside-1_226_1750)"/>
<rect x="1.04007" y="4.26322" width="18.7566" height="1.70514" stroke="black" stroke-width="1.70514"/>
<rect x="9.43152" y="0.987188" width="1.97438" height="1.97438" stroke="black" stroke-width="1.97438"/>
</svg>
