<svg width="43" height="43" viewBox="0 0 43 43" fill="none" xmlns="http://www.w3.org/2000/svg">
<path fill-rule="evenodd" clip-rule="evenodd" d="M21.3802 42.7605C33.1882 42.7605 42.7605 33.1882 42.7605 21.3802C42.7605 9.57226 33.1882 0 21.3802 0C9.57226 0 0 9.57226 0 21.3802C0 33.1882 9.57226 42.7605 21.3802 42.7605ZM34.9827 30.6876C35.0228 30.6825 35.0628 30.6773 35.1025 30.6727C35.9095 30.5664 36.7072 29.3246 36.0816 28.4894C36.043 28.439 36.0087 28.385 35.9742 28.3309C35.936 28.2709 35.8976 28.2106 35.8532 28.1547C35.8074 28.0977 35.7619 28.0408 35.7165 27.9839C35.5076 27.7223 35.3005 27.463 35.0744 27.2163C34.6967 26.8069 34.3153 26.4006 33.9338 25.994C33.4496 25.4781 32.9652 24.9618 32.4876 24.4387C32.2275 24.1538 31.9822 23.8542 31.7374 23.5552C31.6436 23.4406 31.5498 23.3261 31.4553 23.2125C31.2895 23.0092 31.2708 22.7934 31.4053 22.5651C31.4555 22.4784 31.5048 22.3913 31.5541 22.3042C31.6827 22.077 31.8111 21.85 31.9558 21.6329C32.7315 20.4631 33.6167 19.3808 34.5207 18.311C34.9586 17.7918 35.359 17.2475 35.6968 16.6563C36.0503 16.0307 36.3068 15.3833 36.1942 14.6388C36.1692 14.4761 36.1285 14.3291 36.0253 14.204C35.7375 13.8537 35.3715 13.666 34.9086 13.666C33.0193 13.6691 31.13 13.6691 29.2407 13.6629C29.0593 13.6629 28.9342 13.7254 28.8372 13.8631C28.8257 13.8795 28.8142 13.8959 28.8027 13.9123C28.7045 14.0518 28.6069 14.1905 28.5369 14.3416C28.221 15.0267 27.9082 15.7086 27.6048 16.3967C27.4638 16.7168 27.3275 17.0391 27.1912 17.3614C26.9585 17.9115 26.7257 18.4619 26.4694 19.0023C26.0283 19.9313 25.459 20.7633 24.5926 21.3608C24.2954 21.5641 23.9482 21.4578 23.8544 21.1356C23.8262 21.0386 23.8168 20.9291 23.8168 20.8259C23.8137 19.7655 23.8137 18.702 23.8137 17.6416C23.8137 16.6407 23.8137 15.6397 23.8106 14.6388C23.8106 14.4949 23.8043 14.3542 23.7887 14.2103C23.7261 13.6128 23.3946 13.2281 22.8253 13.0623C22.5594 12.9841 22.281 12.9497 22.0057 12.9215C21.813 12.9055 21.6185 12.9079 21.4248 12.9104C21.3545 12.9113 21.2843 12.9122 21.2144 12.9122C20.7807 12.9122 20.3468 12.9125 19.9127 12.9129C19.0441 12.9136 18.1751 12.9142 17.3075 12.9122C17.0417 12.9122 16.7789 12.9309 16.5287 13.0248C15.9438 13.2437 15.6466 13.7317 15.7092 14.3542C15.7529 14.767 15.925 14.9422 16.3347 14.9954C16.3787 15.0015 16.4226 15.007 16.4664 15.0124C16.5568 15.0237 16.6467 15.0348 16.7351 15.0517C17.026 15.108 17.1824 15.28 17.2106 15.5741C17.2231 15.7023 17.2231 15.8306 17.2231 15.9588C17.2262 17.6072 17.2262 19.2557 17.2262 20.9041C17.2262 20.9667 17.2262 21.0261 17.2231 21.0855C17.2106 21.3389 17.1105 21.4421 16.8571 21.4327C16.5975 21.4265 16.3723 21.342 16.2096 21.1231C16.0885 20.9598 15.9659 20.7979 15.8433 20.6362C15.6114 20.3302 15.3797 20.0244 15.1586 19.7092C14.4674 18.7239 13.8167 17.7136 13.285 16.6282C13.0441 16.134 12.772 15.6554 12.4967 15.1799C12.2465 14.742 11.965 14.3229 11.6053 13.9632C11.4113 13.7661 11.1892 13.6691 10.9015 13.6723C9.80591 13.6816 8.71034 13.6805 7.61477 13.6793C7.24958 13.6789 6.88439 13.6785 6.5192 13.6785C6.48636 13.6785 6.45195 13.6793 6.41754 13.6801C6.38313 13.6809 6.34872 13.6816 6.31588 13.6816C6.1282 13.6848 5.97806 13.7724 5.88422 13.9287C5.81854 14.0351 5.7591 14.154 5.72782 14.276C5.61522 14.6857 5.61522 15.0892 5.76536 15.4959C6.06877 16.3154 6.47541 17.088 6.89768 17.8512C8.05503 19.9438 9.34062 21.9488 10.8295 23.8256C11.9337 25.2144 13.041 26.6064 14.2578 27.9014C15.2587 28.968 16.4098 29.8219 17.7204 30.4663C17.9519 30.5789 18.1928 30.6634 18.4524 30.6821C19.8568 30.776 21.2644 30.7541 22.672 30.7228C23.0067 30.7165 23.2694 30.5601 23.4352 30.2755C23.5291 30.1066 23.6073 29.922 23.6604 29.7375C23.7824 29.3215 23.7949 28.8898 23.8043 28.4613C23.8061 28.3894 23.8075 28.3174 23.809 28.2454C23.8152 27.9349 23.8214 27.6231 23.8544 27.3133C23.8763 27.1037 23.9482 26.8879 24.0327 26.6908C24.1234 26.4719 24.3204 26.3655 24.555 26.3593C24.7302 26.3561 24.9022 26.3843 25.0367 26.5125C25.0594 26.5327 25.082 26.553 25.1047 26.5732C25.3452 26.7877 25.5869 27.0033 25.8156 27.232C26.1433 27.5622 26.4683 27.8945 26.7933 28.2268C27.2625 28.7065 27.7317 29.1862 28.2085 29.6593C28.4805 29.9258 28.779 30.1681 29.0765 30.4096C29.1177 30.4431 29.1589 30.4766 29.2001 30.5101C29.3658 30.6446 29.5567 30.7259 29.7787 30.7259C30.7453 30.7222 31.7118 30.7218 32.6784 30.7214C33.3227 30.7212 33.9671 30.7209 34.6114 30.7197C34.7343 30.7197 34.859 30.7036 34.9827 30.6876Z" fill="#141515"/>
</svg>
